<svg version="1.1" id="Layer_1" xmlns="http://www.w3.org/2000/svg" xmlns:xlink="http://www.w3.org/1999/xlink" x="0px" y="0px"
	 width="100%" viewBox="0 0 78 84" enable-background="new 0 0 78 84" xml:space="preserve">
<path fill="#FDFDFD" opacity="1.000000" stroke="none" 
	d="
M42.000000,85.000000 
	C28.000000,85.000000 14.500000,85.000000 1.000000,85.000000 
	C1.000000,57.000000 1.000000,29.000000 1.000000,1.000000 
	C27.000000,1.000000 53.000000,1.000000 79.000000,1.000000 
	C79.000000,29.000000 79.000000,57.000000 79.000000,85.000000 
	C66.833336,85.000000 54.666668,85.000000 42.000000,85.000000 
M48.929363,52.819874 
	C48.082138,53.757275 47.234909,54.694675 45.764370,56.321728 
	C41.619228,52.131710 37.533184,48.001431 34.281910,44.714962 
	C35.938652,41.331287 37.809982,39.243431 37.859474,37.113247 
	C38.095394,26.959156 33.668629,22.798429 23.363686,22.809277 
	C22.033144,22.810677 20.697023,22.766060 19.373079,22.867697 
	C13.681700,23.304619 10.375735,27.381760 11.082499,33.031712 
	C13.767383,54.494995 31.877262,74.010849 52.946865,77.755966 
	C56.234322,78.340309 59.997910,78.277725 63.118294,77.241028 
	C66.778603,76.024925 67.751564,72.302383 67.540756,68.546387 
	C67.261513,63.571125 69.301743,57.356045 63.420242,54.730995 
	C59.272530,52.879776 54.216167,53.064411 48.929363,52.819874 
M50.232029,23.144205 
	C48.420330,22.913334 46.524185,22.246103 44.820946,22.575706 
	C43.155365,22.898022 41.686504,24.236898 40.131294,25.129553 
	C41.524956,26.106319 42.837898,27.776794 44.325085,27.949850 
	C55.979683,29.306046 60.710907,33.839413 62.492943,45.335598 
	C62.724693,46.830654 64.496796,48.086937 65.555420,49.453815 
	C66.378723,48.022511 67.842186,46.625977 67.922104,45.154297 
	C68.467056,35.119667 61.748058,26.652908 50.232029,23.144205 
M52.480820,37.039646 
	C50.298534,35.989975 48.199783,34.570904 45.897842,34.050354 
	C44.788387,33.799465 43.296177,35.241161 41.977283,35.916428 
	C42.869915,37.047394 43.646286,38.301151 44.681614,39.281406 
	C46.358803,40.869381 48.945400,41.947685 49.793045,43.846161 
	C50.838318,46.187263 51.485004,48.467579 54.400658,47.650482 
	C57.737999,46.715210 57.287373,43.972572 56.121071,41.592731 
	C55.392521,40.106117 54.068230,38.911453 52.480820,37.039646 
z"/>
<path fill="#0D0D0D" opacity="1.000000" stroke="none" 
	d="
M49.247425,52.579987 
	C54.216167,53.064411 59.272530,52.879776 63.420242,54.730995 
	C69.301743,57.356045 67.261513,63.571125 67.540756,68.546387 
	C67.751564,72.302383 66.778603,76.024925 63.118294,77.241028 
	C59.997910,78.277725 56.234322,78.340309 52.946865,77.755966 
	C31.877262,74.010849 13.767383,54.494995 11.082499,33.031712 
	C10.375735,27.381760 13.681700,23.304619 19.373079,22.867697 
	C20.697023,22.766060 22.033144,22.810677 23.363686,22.809277 
	C33.668629,22.798429 38.095394,26.959156 37.859474,37.113247 
	C37.809982,39.243431 35.938652,41.331287 34.281910,44.714962 
	C37.533184,48.001431 41.619228,52.131710 45.764370,56.321728 
	C47.234909,54.694675 48.082138,53.757275 49.247425,52.579987 
M26.849966,41.579071 
	C28.334038,39.762108 29.818110,37.945141 31.645033,35.708420 
	C29.832624,28.280163 29.832626,28.280241 21.338375,28.530836 
	C21.172363,28.535732 21.005430,28.541929 20.840048,28.530836 
	C17.568037,28.311331 16.545118,29.681353 16.853048,33.025436 
	C18.625999,52.279308 39.060669,72.165298 58.143463,72.843430 
	C59.365982,72.886871 61.312489,72.124840 61.761341,71.183807 
	C64.593330,65.246422 61.239326,59.053642 54.741436,57.770126 
	C53.834915,57.591064 52.910812,57.501003 52.112705,57.386635 
	C48.774044,63.695900 48.203228,63.830883 42.279697,60.089348 
	C35.368687,55.724083 30.076265,49.962711 26.849966,41.579071 
z"/>
<path fill="#0F0F0F" opacity="1.000000" stroke="none" 
	d="
M50.611782,23.274202 
	C61.748058,26.652908 68.467056,35.119667 67.922104,45.154297 
	C67.842186,46.625977 66.378723,48.022511 65.555420,49.453815 
	C64.496796,48.086937 62.724693,46.830654 62.492943,45.335598 
	C60.710907,33.839413 55.979683,29.306046 44.325085,27.949850 
	C42.837898,27.776794 41.524956,26.106319 40.131294,25.129551 
	C41.686504,24.236898 43.155365,22.898022 44.820946,22.575706 
	C46.524185,22.246103 48.420330,22.913334 50.611782,23.274202 
z"/>
<path fill="#0E0E0E" opacity="1.000000" stroke="none" 
	d="
M52.746048,37.312714 
	C54.068230,38.911453 55.392521,40.106117 56.121071,41.592731 
	C57.287373,43.972572 57.737999,46.715210 54.400658,47.650482 
	C51.485004,48.467579 50.838318,46.187263 49.793045,43.846161 
	C48.945400,41.947685 46.358803,40.869381 44.681614,39.281406 
	C43.646286,38.301151 42.869915,37.047394 41.977283,35.916428 
	C43.296177,35.241161 44.788387,33.799465 45.897842,34.050354 
	C48.199783,34.570904 50.298534,35.989975 52.746048,37.312714 
z"/>
<path fill="#F8F8F8" opacity="1.000000" stroke="none" 
	d="
M26.881096,41.966488 
	C30.076265,49.962711 35.368687,55.724083 42.279697,60.089348 
	C48.203228,63.830883 48.774044,63.695900 52.112705,57.386635 
	C52.910812,57.501003 53.834915,57.591064 54.741436,57.770126 
	C61.239326,59.053642 64.593330,65.246422 61.761341,71.183807 
	C61.312489,72.124840 59.365982,72.886871 58.143463,72.843430 
	C39.060669,72.165298 18.625999,52.279308 16.853048,33.025436 
	C16.545118,29.681353 17.568037,28.311331 20.840048,28.530836 
	C21.005430,28.541929 21.172363,28.535732 21.338375,28.530836 
	C29.832626,28.280241 29.832624,28.280163 31.645033,35.708420 
	C29.818110,37.945141 28.334038,39.762108 26.881096,41.966488 
z"/>
</svg>