<svg version="1.1" id="Layer_1" xmlns="http://www.w3.org/2000/svg" xmlns:xlink="http://www.w3.org/1999/xlink" x="0px" y="0px"
	 width="100%" viewBox="0 0 70 89" enable-background="new 0 0 70 89" xml:space="preserve">
<path fill="#FEFEFE" opacity="1.000000" stroke="none" 
	d="
M40.000000,90.000000 
	C26.666666,90.000000 13.833333,90.000000 1.000000,90.000000 
	C1.000000,60.333332 1.000000,30.666666 1.000000,1.000000 
	C24.333334,1.000000 47.666668,1.000000 71.000000,1.000000 
	C71.000000,30.666666 71.000000,60.333332 71.000000,90.000000 
	C60.833332,90.000000 50.666668,90.000000 40.000000,90.000000 
M31.443953,11.900284 
	C13.640258,16.295794 6.954655,33.568108 17.266373,48.606354 
	C19.145185,51.346352 21.547586,53.788193 23.057568,56.704582 
	C24.882256,60.228809 26.013939,64.111847 27.866426,68.935501 
	C32.652977,68.935501 39.231346,68.935501 46.948795,68.935501 
	C43.133774,63.749283 46.119617,60.328899 48.274868,56.890175 
	C50.122795,53.941788 52.416050,51.273865 54.491383,48.466400 
	C60.401272,40.471615 61.459953,31.989801 56.282574,23.339273 
	C50.894146,14.336123 42.775429,10.438703 31.443953,11.900284 
M34.587151,81.008392 
	C38.005089,80.370087 42.042389,82.598305 45.250710,78.821686 
	C41.527233,75.457275 37.390049,77.174210 33.676548,77.133430 
	C31.467350,77.109169 29.242704,78.491310 27.025003,79.241158 
	C29.237349,79.830238 31.449696,80.419312 34.587151,81.008392 
z"/>
<path fill="#312E2F" opacity="1.000000" stroke="none" 
	d="
M31.854916,11.857985 
	C42.775429,10.438703 50.894146,14.336123 56.282574,23.339273 
	C61.459953,31.989801 60.401272,40.471615 54.491383,48.466400 
	C52.416050,51.273865 50.122795,53.941788 48.274868,56.890175 
	C46.119617,60.328899 43.133774,63.749283 46.948795,68.935501 
	C39.231346,68.935501 32.652977,68.935501 27.866426,68.935501 
	C26.013939,64.111847 24.882256,60.228809 23.057568,56.704582 
	C21.547586,53.788193 19.145185,51.346352 17.266373,48.606354 
	C6.954655,33.568108 13.640258,16.295794 31.854916,11.857985 
M33.100677,16.274397 
	C17.105911,20.620211 12.526673,33.728416 22.089691,47.176525 
	C25.972853,52.637264 29.307175,58.488293 33.270561,64.762207 
	C34.672588,64.762207 37.270760,64.762207 39.868927,64.762207 
	C39.512218,64.454453 39.155514,64.146690 38.798805,63.838936 
	C42.672688,57.949020 46.406521,51.960701 50.457462,46.195187 
	C55.065380,39.636951 56.364372,32.873318 52.248856,25.719461 
	C48.221413,18.718699 41.955463,15.676946 33.100677,16.274397 
z"/>
<path fill="#282425" opacity="1.000000" stroke="none" 
	d="
M34.124596,81.008392 
	C31.449696,80.419312 29.237349,79.830238 27.025005,79.241158 
	C29.242704,78.491310 31.467350,77.109169 33.676548,77.133430 
	C37.390049,77.174210 41.527233,75.457275 45.250710,78.821686 
	C42.042389,82.598305 38.005089,80.370087 34.124596,81.008392 
z"/>
<path fill="#FDFDFD" opacity="1.000000" stroke="none" 
	d="
M33.513466,16.240221 
	C41.955463,15.676946 48.221413,18.718699 52.248856,25.719461 
	C56.364372,32.873318 55.065380,39.636951 50.457462,46.195187 
	C46.406521,51.960701 42.672688,57.949020 38.798805,63.838936 
	C39.155514,64.146690 39.512218,64.454453 39.868927,64.762207 
	C37.270760,64.762207 34.672588,64.762207 33.270561,64.762207 
	C29.307175,58.488293 25.972853,52.637264 22.089691,47.176525 
	C12.526673,33.728416 17.105911,20.620211 33.513466,16.240221 
z"/>
</svg>