<svg version="1.1" id="Layer_1" xmlns="http://www.w3.org/2000/svg" xmlns:xlink="http://www.w3.org/1999/xlink" x="0px" y="0px"
	 width="100%" viewBox="0 0 128 112" enable-background="new 0 0 128 112" xml:space="preserve">
<path fill="#000000" opacity="1.000000" stroke="none" 
	d="
M91.336594,62.016205 
	C91.303993,68.335991 91.224854,74.158966 91.265984,79.981087 
	C91.284897,82.658218 90.172295,84.153755 87.446671,83.994072 
	C83.165016,83.743233 78.892281,83.340057 74.072517,82.958359 
	C75.270645,78.179741 79.453835,73.272377 73.275475,69.461388 
	C70.749283,67.903152 68.221382,67.943855 65.822342,69.736214 
	C60.608223,73.631729 64.350456,78.102448 65.487274,83.108063 
	C60.206448,83.108063 55.324532,83.215385 50.451122,83.058434 
	C48.321148,82.989845 48.611595,81.135414 48.619015,79.634109 
	C48.637772,75.837746 48.625237,72.041229 48.625237,67.527939 
	C43.095776,69.267113 37.745590,71.918732 34.076420,65.638695 
	C32.236084,62.488831 32.810390,59.459679 35.026894,56.852901 
	C38.861195,52.343475 43.375656,54.189617 48.757961,56.662590 
	C48.757961,52.835171 48.826710,49.781902 48.741268,46.732960 
	C48.623596,42.533936 50.140846,40.488041 54.723705,41.316498 
	C57.760536,41.865471 60.912239,42.059872 64.312531,41.018810 
	C62.966084,36.244701 60.771011,31.386755 66.320816,28.001225 
	C69.316444,26.173811 72.333076,26.191059 75.206520,28.247610 
	C80.093460,31.745237 78.635933,36.274170 76.742218,41.126228 
	C80.262848,42.042839 83.561577,41.878639 86.789627,41.726715 
	C90.762695,41.539734 92.440308,43.289692 91.833336,47.076405 
	C91.062767,51.883732 91.497368,56.705925 91.336594,62.016205 
z"/>
</svg>